# xmcd
#
# Track frame offsets:
#       150
#       14205
#       27785
#       41965
#       55015
#       72240
#       83970
#       100780
#       117700
#       130207
#
# Disc length: 1931 seconds
#
# Revision: 1
# Processed by: cddbd v1.4PL0 Copyright (c) Steve Scherf et al.
# Submitted via: MusiCat 1.1
#
DISCID=8d07890a
DTITLE=Percy Strother - A Good Woman is Hard to Find
DYEAR=1992
DGENRE=
TTITLE0=A good woman is hard to find
TTITLE1=Your fool done Woke me up
TTITLE2=If you don't love me when I want it, Somebody else will
TTITLE3=I'm falling in love with you abby
TTITLE4=Someday I will be over you
TTITLE5=Will you be my part-time Lady?
TTITLE6=I made a good woman go bad
TTITLE7=Love is growing cold
TTITLE8=She keeps me satisfied
TTITLE9=Can't let you go
EXTD=1992\n\n\nsubmitted by Stamppot
EXTT0=
EXTT1=
EXTT2=
EXTT3=
EXTT4=
EXTT5=
EXTT6=
EXTT7=
EXTT8=
EXTT9=
PLAYORDER=
